<svg width="43" height="43" viewBox="0 0 43 43" fill="none" xmlns="http://www.w3.org/2000/svg">
<path d="M42.25 21.5C42.25 32.9599 32.9599 42.25 21.5 42.25C10.0401 42.25 0.75 32.9599 0.75 21.5C0.75 10.0401 10.0401 0.75 21.5 0.75C32.9599 0.75 42.25 10.0401 42.25 21.5Z" fill="#FFE7C0" stroke="#4D4D52" stroke-width="1.5"/>
<path d="M18.49 27.4763H18.06C14.62 27.4763 12.9 26.6188 12.9 22.3317V18.0446C12.9 14.6148 14.62 12.9 18.06 12.9H24.94C28.38 12.9 30.1 14.6148 30.1 18.0446V22.3317C30.1 25.7614 28.38 27.4763 24.94 27.4763H24.51C24.2434 27.4763 23.9854 27.6049 23.822 27.8192L22.532 29.5341C21.9644 30.2886 21.0356 30.2886 20.468 29.5341L19.178 27.8192C19.0404 27.6306 18.7222 27.4763 18.49 27.4763Z" stroke="#4D4D52" stroke-width="1.5" stroke-miterlimit="10" stroke-linecap="round" stroke-linejoin="round"/>
<path d="M24.937 20.6169H24.9436" stroke="#4D4D52" stroke-width="1.5" stroke-linecap="round" stroke-linejoin="round"/>
<path d="M21.4961 20.6169H21.5028" stroke="#4D4D52" stroke-width="1.5" stroke-linecap="round" stroke-linejoin="round"/>
<path d="M18.0553 20.6169H18.0619" stroke="#4D4D52" stroke-width="1.5" stroke-linecap="round" stroke-linejoin="round"/>
</svg>
