<svg width="30" height="30" viewBox="0 0 30 30" fill="none" xmlns="http://www.w3.org/2000/svg">
<path d="M29.5 15C29.5 23.0081 23.0081 29.5 15 29.5C6.99187 29.5 0.5 23.0081 0.5 15C0.5 6.99187 6.99187 0.5 15 0.5C23.0081 0.5 29.5 6.99187 29.5 15Z" fill="#FFE7C0" stroke="#4D4D52"/>
<path d="M12.9 19.1695H12.6C10.2 19.1695 9 18.5713 9 15.5803V12.5892C9 10.1964 10.2 9 12.6 9H17.4C19.8 9 21 10.1964 21 12.5892V15.5803C21 17.9731 19.8 19.1695 17.4 19.1695H17.1C16.914 19.1695 16.734 19.2592 16.62 19.4088L15.72 20.6052C15.324 21.1316 14.676 21.1316 14.28 20.6052L13.38 19.4088C13.284 19.2772 13.062 19.1695 12.9 19.1695Z" stroke="#4D4D52" stroke-width="0.665476" stroke-miterlimit="10" stroke-linecap="round" stroke-linejoin="round"/>
<path d="M17.3979 14.3839H17.4032" stroke="#4D4D52" stroke-width="0.887302" stroke-linecap="round" stroke-linejoin="round"/>
<path d="M14.9973 14.3839H15.0027" stroke="#4D4D52" stroke-width="0.887302" stroke-linecap="round" stroke-linejoin="round"/>
<path d="M12.5967 14.3839H12.6021" stroke="#4D4D52" stroke-width="0.887302" stroke-linecap="round" stroke-linejoin="round"/>
</svg>
